<svg xmlns="http://www.w3.org/2000/svg" viewBox="0 0 16 16" fill="#b9b9ba" id="Lock-Key-Open--Streamline-Phosphor" height="16" width="16"><desc>Lock Key Open Streamline Icon: https://streamlinehq.com</desc><path d="M13.80740625 5.38666875H5.6770375V3.64444375c0 -1.2829375 1.040025 -2.3229625 2.3229625 -2.3229625 1.11575 0 2.11970625 0.79851875 2.334575 1.85764375 0.09319375 0.43723125 0.62475625 0.609625 0.95681875 0.3103 0.15105625 -0.13616875 0.21988125 -0.3414375 0.1814375 -0.54114375C11.1447125 1.33236875 9.68415 0.16 8 0.16c-1.923575 0.002 -3.48244375 1.56086875 -3.48444375 3.48444375v1.742225H2.19259375c-0.6414875 -0.00003125 -1.16148125 0.5199875 -1.16148125 1.16148125v8.13036875c0 0.6414875 0.51999375 1.1615125 1.16148125 1.16148125h11.6148125c0.64146875 0 1.16148125 -0.5200125 1.16148125 -1.16148125V6.54815c0 -0.64145 -0.52003125 -1.16145625 -1.16148125 -1.16148125Zm0 9.29185H2.19259375V6.54815h11.6148125v8.13036875ZM8 7.70963125c-1.5646875 0.000525 -2.54205 1.69468125 -1.75925 3.04948125 0.25961875 0.44931875 0.6812625 0.78233125 1.1785125 0.93076875v1.2464125c0 0.44705625 0.48395 0.72646875 0.87110625 0.5029375 0.17968125 -0.1037375 0.290375 -0.29545625 0.290375 -0.5029375v-1.2464125c1.49930625 -0.44758125 1.95185625 -2.35036875 0.81458125 -3.42501875 -0.377175 -0.35640625 -0.87639375 -0.55505625 -1.395325 -0.55523125Zm0 2.9037c-0.67058125 0 -1.08969375 -0.725925 -0.75440625 -1.3066625 0.33529375 -0.58074375 1.17351875 -0.58074375 1.5088125 0 0.07645625 0.132425 0.11670625 0.28264375 0.11670625 0.43555625 0 0.4811 -0.3900125 0.87110625 -0.8711125 0.87110625Z" stroke-width="0.0625"></path></svg>