<svg xmlns="http://www.w3.org/2000/svg" viewBox="0 0 16 16" fill="#000000" id="Sign-In--Streamline-Phosphor" height="40" width="40"><desc>Sign In Streamline Icon: https://streamlinehq.com</desc><path d="m10.42223125 8.46223125 -3.2666625 3.26666875c-0.35583125 0.355825 -0.96341875 0.193025 -1.09365625 -0.29304375 -0.06045 -0.2255875 0.00405 -0.46628125 0.1691875 -0.631425l2.15191875 -2.1511H0.81333125c-0.50293125 0 -0.81726875 -0.54444375 -0.5658 -0.98 0.1167125 -0.20215 0.332375 -0.326675 0.5658 -0.3266625h7.5696875L6.2311 5.19556875c-0.355825 -0.35583125 -0.193025 -0.96341875 0.29304375 -1.09365625 0.2255875 -0.06045 0.46628125 0.00405 0.631425 0.1691875l3.2666625 3.26666875c0.2554875 0.2552 0.2554875 0.6692625 0 0.9244625ZM15.18666875 0.16H9.96c-0.5029375 0 -0.817275 0.54444375 -0.56580625 0.98 0.11670625 0.20213125 0.3324 0.32665625 0.56580625 0.32666875h4.57333125v13.0666625H9.96c-0.5029375 0 -0.817275 0.54444375 -0.56580625 0.98 0.11670625 0.2021375 0.3324 0.32665625 0.56580625 0.32666875h5.22666875c0.3608125 -0.00001875 0.65333125 -0.29251875 0.65333125 -0.65333125V0.81333125c0 -0.3608125 -0.29251875 -0.6533125 -0.65333125 -0.65333125Z" stroke-width="0.0625"></path></svg>